<svg width="974" height="878" viewBox="0 0 974 878" fill="none" xmlns="http://www.w3.org/2000/svg">
<g filter="url(#filter0_d)">
<path d="M816.712 224.001C744.61 100.649 394.947 111.668 187.141 225.32C40.9074 334.867 193.298 575.38 213.08 601.303C378.382 817.922 683.713 776.685 683.713 776.685C683.713 776.685 926.76 412.271 816.712 224.001Z" fill="#F05865"/>
<path d="M816.712 224.001C744.61 100.649 394.947 111.668 187.141 225.32C40.9074 334.867 193.298 575.38 213.08 601.303C378.382 817.922 683.713 776.685 683.713 776.685C683.713 776.685 926.76 412.271 816.712 224.001Z" stroke="#F05865"/>
</g>
<g clip-path="url(#clip0)">
<path opacity="0.18" d="M478.655 269.697C474.908 271.405 471.214 273.269 467.611 275.288C425.33 298.987 395.749 343.445 349.471 358.213C336.955 362.213 323.492 363.3 313.369 372.049C306.07 378.622 299.714 386.141 294.476 394.401C283.409 411.516 276.067 430.705 272.915 450.755C266.591 489.583 275.439 533.304 306.821 559.902C330.486 579.899 365.523 580.921 395.065 575.511C411.999 572.418 428.249 566.373 445.024 562.413C474.354 555.49 504.864 554.956 534.425 560.847C553.936 564.73 572.775 571.408 592.273 575.524C606.301 578.488 620.881 580.132 635.185 578.307C648.911 576.559 659.494 570.114 671.997 564.911C695.793 554.984 719.853 542.326 735.025 520.983C746.678 504.255 752.06 484.058 750.249 463.853C748.317 443.689 739.982 424.637 726.426 409.402C720.379 402.581 712.49 396.537 709.559 387.839C706.627 379.142 706.14 369.008 705.233 360.077C703.222 340.533 700.842 320.407 691.153 303.232C680.372 284.115 661.295 270.448 640.51 262.747C619.724 255.046 597.255 252.845 575.05 252.586C542.077 252.198 508.341 256.185 478.655 269.697Z" fill="black"/>
<path d="M467.143 535.219H570.784L552.447 469.347H482.609L467.143 535.219Z" fill="#68E1FD"/>
<path d="M467.143 535.219H570.784L552.447 469.347H482.609L467.143 535.219Z" fill="url(#paint0_linear)"/>
<path d="M674.208 293.253V463.201C674.208 468.131 672.249 472.858 668.762 476.343C665.275 479.829 660.545 481.787 655.613 481.787H387.02C382.091 481.783 377.365 479.824 373.88 476.338C370.396 472.853 368.439 468.128 368.439 463.201V293.253C368.439 288.324 370.398 283.597 373.885 280.111C377.372 276.626 382.102 274.668 387.034 274.668H655.599C658.042 274.666 660.462 275.145 662.72 276.079C664.977 277.012 667.029 278.38 668.757 280.106C670.485 281.832 671.856 283.882 672.791 286.138C673.727 288.393 674.208 290.811 674.208 293.253V293.253Z" fill="#68E1FD"/>
<path d="M674.208 293.253V442.291H368.439V293.253C368.439 288.323 370.397 283.594 373.884 280.106C377.371 276.619 382.101 274.658 387.034 274.654H655.599C660.533 274.661 665.262 276.623 668.75 280.11C672.238 283.596 674.201 288.323 674.208 293.253V293.253Z" fill="#473F47"/>
<path d="M669.61 296.856V437.369H373.064V296.856C373.076 294.5 373.553 292.169 374.467 289.998C375.381 287.826 376.715 285.855 378.391 284.199C380.067 282.542 382.054 281.232 384.237 280.343C386.421 279.454 388.758 279.004 391.115 279.018H651.559C653.917 279.004 656.254 279.454 658.437 280.343C660.62 281.232 662.607 282.542 664.283 284.199C665.96 285.855 667.293 287.826 668.207 289.998C669.121 292.169 669.598 294.5 669.61 296.856V296.856Z" fill="white"/>
<path opacity="0.18" d="M669.61 296.856V437.369H373.064V296.856C373.076 294.5 373.553 292.169 374.467 289.998C375.381 287.826 376.715 285.855 378.391 284.199C380.067 282.542 382.054 281.232 384.237 280.343C386.421 279.454 388.758 279.004 391.115 279.018H651.559C653.917 279.004 656.254 279.454 658.437 280.343C660.62 281.232 662.607 282.542 664.283 284.199C665.96 285.855 667.293 287.826 668.207 289.998C669.121 292.169 669.598 294.5 669.61 296.856V296.856Z" fill="#68E1FD"/>
<path d="M417.178 378.105C414.267 366.657 409.778 355.604 407.479 344.007C405.181 332.409 405.167 320.554 405.289 308.752C405.141 304.892 405.628 301.034 406.731 297.332C408.024 293.702 410.812 290.357 414.512 289.378L419.885 324.524C420.933 331.417 422.008 338.391 424.592 344.917C427.177 351.443 431.394 357.453 437.515 360.865C435.516 350.819 434.153 340.656 433.434 330.438C433.026 324.85 433.298 318.202 437.91 315.061C441.99 312.219 448.017 313.701 451.513 317.277C455.009 320.853 456.614 325.829 457.634 330.71C459.103 337.739 459.715 345.094 462.871 351.539C463.946 353.755 466.775 356.052 468.503 354.258C468.773 353.942 468.998 353.589 469.169 353.211L488.146 315.727C489.887 312.274 491.546 307.828 489.071 304.85C487.193 302.607 483.861 302.43 480.909 302.39C462.072 302.087 443.342 299.484 425.136 294.64C437.855 288.399 452.342 287.217 466.558 286.754C478.243 286.374 490.485 286.537 500.824 292.016C501.378 292.262 501.871 292.629 502.266 293.09C502.69 293.739 502.929 294.491 502.959 295.265C504.727 309.513 502.267 323.966 495.886 336.828C491.669 345.285 485.833 352.857 481.358 361.192C469.033 384.087 467.646 411.388 470.475 437.233C458.899 435.982 451.431 439.109 439.787 437.845C436.808 437.519 432.033 436.853 429.068 437.315C427.313 437.6 418.552 438.389 416.825 437.233C416.825 437.233 420.593 420.483 420.797 417.166C421.605 404.037 420.384 390.862 417.178 378.105V378.105Z" fill="url(#paint1_linear)"/>
<path d="M467.075 370.083C466 370.083 469.319 363.081 469.509 362.769C471.954 358.798 474.754 355.057 477.875 351.593C480.596 348.452 483.317 345.217 486.296 342.321C489.016 339.601 492.512 336.026 496.797 336.882C500.021 337.562 501.953 341.165 501.817 344.469C501.681 347.773 499.98 350.764 498.198 353.551C494.621 359.139 490.785 364.427 486.894 369.866L467.075 370.083Z" fill="white"/>
<path d="M442.276 373.849C443.31 374.081 441.501 366.521 441.392 366.181C439.813 361.798 437.842 357.566 435.502 353.537C433.461 349.88 431.516 346.182 429.163 342.661C427 339.479 424.361 335.224 419.994 335.21C416.702 335.21 414.063 338.337 413.519 341.586C412.975 344.836 414.023 348.14 415.192 351.226C417.546 357.439 420.212 363.462 422.919 369.485L442.276 373.849Z" fill="white"/>
<path d="M434.033 358.717H475.984C477.414 358.679 478.836 358.923 480.171 359.435C481.506 359.947 482.727 360.716 483.764 361.7C484.801 362.684 485.635 363.862 486.216 365.167C486.797 366.473 487.116 367.88 487.153 369.308V369.798C487.153 369.798 479.154 402.428 478.991 413.386C478.991 419.382 480.882 437.315 480.882 437.315H429.081C429.081 437.315 431.475 418.58 431.421 412.298C431.339 401.599 422.865 369.798 422.865 369.798C422.837 368.369 423.092 366.95 423.614 365.62C424.136 364.29 424.915 363.076 425.907 362.047C426.899 361.018 428.083 360.194 429.394 359.623C430.704 359.051 432.114 358.744 433.543 358.717H434.033Z" fill="white"/>
<path d="M511.271 297.087C511.648 295.924 511.723 294.684 511.488 293.484C511.133 292.404 510.46 291.456 509.557 290.765C508.447 289.81 507.14 289.111 505.73 288.716C504.32 288.321 502.84 288.241 501.395 288.481C500.793 288.577 500.22 288.81 499.722 289.161C499.271 289.546 498.889 290.006 498.593 290.52C497.124 292.818 495.614 295.592 496.566 298.148C497.247 299.378 497.991 300.571 498.797 301.723C499.232 302.553 499.45 303.477 499.858 304.32C500.905 306.441 504.932 309.283 507.394 307.706C508.618 306.931 509.081 304.293 509.53 303.015C510.155 301.112 510.754 299.113 511.271 297.087Z" fill="#FCA89E"/>
<path d="M406.663 293.444C406.279 292.282 406.204 291.04 406.446 289.841C406.801 288.76 407.474 287.813 408.377 287.121C409.487 286.167 410.794 285.467 412.204 285.072C413.614 284.678 415.094 284.597 416.539 284.837C417.141 284.933 417.714 285.166 418.212 285.517C418.664 285.903 419.045 286.362 419.341 286.877C420.797 289.174 422.32 291.934 421.368 294.504C420.687 295.734 419.943 296.928 419.137 298.08C418.702 298.909 418.484 299.834 418.076 300.677C417.029 302.797 413.002 305.639 410.527 304.062C409.316 303.287 408.853 300.649 408.404 299.371C407.765 297.468 407.167 295.469 406.663 293.444Z" fill="#FCA89E"/>
<path d="M461.47 364.835C461.316 366.072 460.686 367.2 459.713 367.98C458.74 368.759 457.501 369.129 456.26 369.009C451.118 368.765 450.737 364.835 450.737 364.835V344.442H461.47V364.835Z" fill="#FCA89E"/>
<path d="M450.737 354.516C450.737 354.516 457.457 364.985 461.47 359.954V351.797L450.737 354.516Z" fill="url(#paint2_linear)"/>
<path d="M446.221 349.322C448.942 357.643 462.273 357.888 466.748 351.28C469.346 347.446 469.659 342.457 468.843 337.902C468.124 333.407 466.749 329.041 464.762 324.945C463.402 322.362 462.041 320.064 458.872 319.697C455.309 319.464 451.755 320.257 448.629 321.981C445.667 323.577 443.348 326.149 442.066 329.258C440.785 332.368 440.618 335.826 441.596 339.044C442.128 340.657 442.806 342.218 443.623 343.707C444.645 345.503 445.514 347.381 446.221 349.322Z" fill="#FCA89E"/>
<path d="M468.353 324.129C467.781 325.514 466.939 326.771 465.877 327.827C463.69 329.917 460.902 331.268 457.906 331.689C453.539 332.382 449.105 331.607 444.697 331.254C444.596 331.961 444.3 332.626 443.84 333.174C443.381 333.721 442.778 334.13 442.099 334.353C442.765 337.427 443.652 340.448 444.752 343.395C445.84 346.277 447.391 348.955 448.561 351.77C444.929 349.268 442.14 344.972 439.487 341.532C438.083 339.886 436.958 338.021 436.155 336.012C435.753 335.006 435.598 333.918 435.702 332.84C435.806 331.761 436.166 330.723 436.753 329.812C437.402 328.739 438.125 327.713 438.916 326.74C440.128 325.848 440.978 324.55 441.31 323.083C441.474 321.546 440.603 320.064 440.481 318.514C440.441 318.295 440.479 318.069 440.589 317.875C440.726 317.73 440.9 317.627 441.093 317.576L444.235 316.407C443.95 315.754 443.58 315.141 443.133 314.585C444.978 313.611 447.047 313.142 449.132 313.226C448.709 312.249 448.155 311.334 447.486 310.506C448.188 310.226 448.942 310.102 449.697 310.144C450.451 310.187 451.187 310.394 451.853 310.751C453.322 311.322 454.737 312.029 456.151 312.722C456.283 311.544 456.305 310.356 456.219 309.174C458.087 309.021 459.945 309.558 461.443 310.683C462.966 311.539 464.344 312.631 465.524 313.919C466.364 314.864 466.994 315.976 467.374 317.182C467.755 318.541 468.448 319.656 468.734 320.975C468.924 322.041 468.791 323.139 468.353 324.129Z" fill="#473F47"/>
<path d="M443.337 343.857C442.868 343.935 442.419 344.107 442.017 344.361C441.615 344.616 441.269 344.948 440.997 345.339C440.7 345.969 440.656 346.689 440.875 347.351C441.107 347.996 441.453 348.595 441.895 349.119C442.13 349.434 442.409 349.714 442.725 349.948C443.267 350.257 443.883 350.413 444.507 350.397C444.992 350.424 445.478 350.424 445.963 350.397C446.209 350.393 446.451 350.332 446.67 350.22C446.903 350.047 447.075 349.804 447.16 349.526C447.5 348.512 447.5 347.414 447.16 346.399C446.937 345.443 446.468 344.562 445.799 343.843C445.187 343.232 444.167 343.626 443.337 343.857Z" fill="#FCA89E"/>
<path d="M488.377 336.57C487.474 338.802 487.088 341.21 487.248 343.612C487.468 345.203 488.158 346.692 489.23 347.888C490.302 349.084 491.707 349.933 493.265 350.326C494.823 350.719 496.463 350.638 497.974 350.093C499.486 349.549 500.8 348.566 501.749 347.27C503.012 345.243 503.816 342.964 504.102 340.594C506.224 329.445 508.147 318.27 509.87 307.067C507.884 306.536 501.708 303.736 500.035 304.85C498.362 305.965 496.729 313.008 495.954 315.075C494.593 318.677 493.233 322.28 492.009 325.951C490.785 329.296 490.05 333.415 488.377 336.57Z" fill="white"/>
<path d="M411.207 336.923C411.301 339.329 411.943 341.682 413.084 343.803C413.942 345.156 415.184 346.224 416.651 346.869C418.119 347.514 419.745 347.707 421.323 347.424C422.901 347.141 424.359 346.394 425.511 345.28C426.662 344.165 427.455 342.732 427.789 341.165C428.118 338.797 427.909 336.385 427.177 334.109C424.52 323.078 421.667 312.106 418.62 301.193C416.594 301.519 409.874 301.479 408.745 303.219C407.616 304.959 409.071 311.947 409.207 314.232C409.452 318.066 409.747 321.895 410.091 325.72C410.404 329.296 411.424 333.347 411.207 336.923Z" fill="white"/>
<path d="M503.925 240.297H413.995V298.297H503.925V240.297Z" fill="#68E1FD"/>
<path d="M441.062 262.887V255.311H442.55L445.651 260.37V255.311H447.073V262.887H445.538L442.483 257.946V262.887H441.062ZM448.695 262.887V255.311H454.313V256.592H450.225V258.272H454.029V259.549H450.225V261.611H454.458V262.887H448.695ZM456.83 262.887L455.021 255.311H456.587L457.729 260.515L459.114 255.311H460.934L462.262 260.603L463.425 255.311H464.965L463.125 262.887H461.502L459.993 257.223L458.489 262.887H456.83Z" fill="white"/>
<path d="M425.966 275.614L427.449 276.085C427.222 276.912 426.843 277.527 426.312 277.93C425.785 278.329 425.115 278.529 424.302 278.529C423.296 278.529 422.469 278.186 421.821 277.501C421.173 276.812 420.849 275.871 420.849 274.679C420.849 273.418 421.175 272.439 421.826 271.743C422.477 271.044 423.333 270.694 424.395 270.694C425.321 270.694 426.074 270.968 426.653 271.516C426.998 271.84 427.256 272.305 427.428 272.911L425.914 273.273C425.824 272.88 425.637 272.57 425.351 272.343C425.068 272.116 424.724 272.002 424.317 272.002C423.756 272.002 423.299 272.203 422.948 272.606C422.6 273.01 422.426 273.663 422.426 274.565C422.426 275.523 422.598 276.205 422.942 276.612C423.287 277.018 423.735 277.222 424.286 277.222C424.693 277.222 425.042 277.092 425.335 276.834C425.628 276.576 425.838 276.169 425.966 275.614ZM435.599 278.4H433.935L433.273 276.679H430.245L429.62 278.4H427.997L430.948 270.823H432.565L435.599 278.4ZM432.783 275.402L431.739 272.591L430.715 275.402H432.783ZM436.395 278.4V270.823H438.685L440.059 275.992L441.418 270.823H443.713V278.4H442.292V272.436L440.788 278.4H439.315L437.816 272.436V278.4H436.395Z" fill="white"/>
<path d="M453.453 278.4V270.823H455.907C456.838 270.823 457.444 270.861 457.727 270.937C458.161 271.051 458.524 271.299 458.817 271.681C459.11 272.06 459.256 272.551 459.256 273.154C459.256 273.619 459.172 274.01 459.003 274.327C458.834 274.644 458.619 274.894 458.357 275.077C458.099 275.256 457.835 275.375 457.566 275.433C457.201 275.506 456.672 275.542 455.98 275.542H454.982V278.4H453.453ZM454.982 272.105V274.255H455.82C456.422 274.255 456.826 274.215 457.029 274.136C457.232 274.057 457.391 273.933 457.504 273.764C457.621 273.595 457.68 273.399 457.68 273.175C457.68 272.899 457.599 272.672 457.437 272.493C457.275 272.314 457.07 272.202 456.822 272.157C456.64 272.122 456.273 272.105 455.721 272.105H454.982Z" fill="white"/>
<path d="M468.528 278.4H466.864L466.203 276.679H463.174L462.549 278.4H460.926L463.877 270.823H465.495L468.528 278.4ZM465.712 275.402L464.668 272.591L463.644 275.402H465.712ZM469.298 278.4V270.823H470.828V278.4H469.298ZM475.815 275.614V274.338H479.113V277.356C478.792 277.666 478.327 277.94 477.717 278.178C477.111 278.412 476.496 278.529 475.872 278.529C475.08 278.529 474.389 278.364 473.8 278.033C473.211 277.699 472.768 277.223 472.472 276.607C472.175 275.986 472.027 275.313 472.027 274.586C472.027 273.797 472.192 273.096 472.523 272.482C472.854 271.869 473.338 271.399 473.975 271.072C474.461 270.82 475.066 270.694 475.789 270.694C476.73 270.694 477.464 270.892 477.991 271.289C478.522 271.681 478.863 272.226 479.014 272.922L477.495 273.206C477.388 272.834 477.187 272.541 476.89 272.327C476.597 272.11 476.23 272.002 475.789 272.002C475.121 272.002 474.589 272.214 474.193 272.637C473.8 273.061 473.603 273.69 473.603 274.524C473.603 275.423 473.803 276.098 474.203 276.55C474.603 276.998 475.126 277.222 475.774 277.222C476.094 277.222 476.415 277.16 476.735 277.036C477.059 276.908 477.336 276.755 477.567 276.576V275.614H475.815ZM480.544 278.4V270.823H482.033L485.133 275.883V270.823H486.555V278.4H485.02L481.965 273.459V278.4H480.544Z" fill="white"/>
<path d="M504.973 248.591C509.803 248.591 513.719 244.677 513.719 239.849C513.719 235.021 509.803 231.107 504.973 231.107C500.142 231.107 496.226 235.021 496.226 239.849C496.226 244.677 500.142 248.591 504.973 248.591Z" fill="#68E1FD"/>
<path d="M504.973 248.591C509.803 248.591 513.719 244.677 513.719 239.849C513.719 235.021 509.803 231.107 504.973 231.107C500.142 231.107 496.226 235.021 496.226 239.849C496.226 244.677 500.142 248.591 504.973 248.591Z" fill="url(#paint3_linear)"/>
<path d="M569.22 386.371H526.751C525.88 386.371 525.173 387.077 525.173 387.948V387.962C525.173 388.833 525.88 389.539 526.751 389.539H569.22C570.091 389.539 570.798 388.833 570.798 387.962V387.948C570.798 387.077 570.091 386.371 569.22 386.371Z" fill="#68E1FD"/>
<path d="M622.625 386.371H580.157C579.285 386.371 578.579 387.077 578.579 387.948V387.962C578.579 388.833 579.285 389.539 580.157 389.539H622.625C623.497 389.539 624.203 388.833 624.203 387.962V387.948C624.203 387.077 623.497 386.371 622.625 386.371Z" fill="#68E1FD"/>
<path d="M595.623 393.509H526.751C525.88 393.509 525.173 394.215 525.173 395.086V395.1C525.173 395.971 525.88 396.677 526.751 396.677H595.623C596.495 396.677 597.201 395.971 597.201 395.1V395.086C597.201 394.215 596.495 393.509 595.623 393.509Z" fill="#68E1FD"/>
<path d="M569.22 400.633H526.751C525.88 400.633 525.173 401.339 525.173 402.21V402.224C525.173 403.095 525.88 403.801 526.751 403.801H569.22C570.091 403.801 570.798 403.095 570.798 402.224V402.21C570.798 401.339 570.091 400.633 569.22 400.633Z" fill="#68E1FD"/>
<path d="M622.625 400.633H580.157C579.285 400.633 578.579 401.339 578.579 402.21V402.224C578.579 403.095 579.285 403.801 580.157 403.801H622.625C623.497 403.801 624.203 403.095 624.203 402.224V402.21C624.203 401.339 623.497 400.633 622.625 400.633Z" fill="#68E1FD"/>
<path d="M584.795 357.385C567.424 356.827 553.508 351.09 553.726 344.591C553.726 344.142 553.903 338.636 554.039 338.201C554.039 338.201 554.746 338.391 554.746 338.378C556.746 332.572 569.424 333.307 585.557 333.823C599.732 334.285 612.178 333.606 615.96 338.555C616.817 339.669 616.667 345.434 616.626 346.631C616.409 353.075 602.166 357.956 584.795 357.385Z" fill="#68E1FD"/>
<path d="M584.795 357.385C567.424 356.827 553.508 351.09 553.726 344.591C553.726 344.142 553.971 337.956 553.971 337.956C555.97 332.151 569.424 333.307 585.557 333.878C599.732 334.34 612.763 335.564 616.572 340.512C616.572 340.512 616.667 345.488 616.572 346.685C616.409 353.075 602.166 357.956 584.795 357.385Z" fill="url(#paint4_linear)"/>
<path d="M584.727 351.715C567.37 351.158 553.74 345.543 553.957 339.03V337.752C555.957 331.947 569.329 327.637 585.476 328.154C599.636 328.616 611.498 332.518 615.28 337.467C616.094 338.449 616.537 339.686 616.531 340.961C616.341 347.501 602.085 352.327 584.727 351.715Z" fill="#68E1FD"/>
<path d="M615.293 337.508L586.482 338.187L553.944 338.949C553.903 338.565 553.903 338.177 553.944 337.793C555.467 333.375 563.466 329.744 574.443 328.575C578.103 328.197 581.785 328.07 585.462 328.195C599.691 328.602 611.512 332.559 615.293 337.508Z" fill="url(#paint5_linear)"/>
<path d="M569.968 349.894L586.482 338.187L553.944 338.949C553.944 338.949 552.311 345.488 569.968 349.894Z" fill="url(#paint6_linear)"/>
<path d="M587.23 335.523L554.393 336.284C554.433 335.824 554.515 335.369 554.637 334.924C556.161 330.519 564.323 327.08 575.205 325.883L587.23 335.523Z" fill="#68E1FD"/>
<path d="M586.482 338.188L587.23 335.523L554.393 336.284L586.482 338.188Z" fill="#68E1FD"/>
<path d="M586.482 338.188L587.23 335.523L554.393 336.284L553.971 337.793L586.482 338.188Z" fill="url(#paint7_linear)"/>
<path d="M569.968 349.894L570.73 347.161L586.972 336.42L586.482 338.187L569.968 349.894Z" fill="url(#paint8_linear)"/>
<path d="M586.972 336.42L553.971 337.78C553.971 337.78 557.358 344.713 570.73 347.147L586.972 336.42Z" fill="#68E1FD"/>
<path d="M570.73 347.161L568.513 355.155C568.513 355.155 554.909 351.729 553.78 345.42L553.971 337.793C553.971 337.793 557.916 346.427 570.73 347.161Z" fill="#68E1FD"/>
<path d="M570.73 347.161L568.513 355.155C568.513 355.155 554.909 351.729 553.78 345.42L553.971 337.793C553.971 337.793 557.916 346.427 570.73 347.161Z" fill="url(#paint9_linear)"/>
<path d="M569.832 332.586L565.221 318.365L548.53 312.682L548.679 312.247L565.588 318.011L565.615 318.12L570.267 332.45L569.832 332.586Z" fill="#68E1FD"/>
<path d="M546.816 313.647C546.307 313.537 545.863 313.23 545.581 312.792C545.299 312.355 545.202 311.824 545.312 311.315C545.423 310.807 545.73 310.363 546.168 310.081C546.605 309.799 547.137 309.703 547.645 309.813H547.863C548.372 309.923 548.816 310.23 549.098 310.668C549.38 311.105 549.476 311.636 549.366 312.145C549.256 312.653 548.949 313.097 548.511 313.379C548.074 313.66 547.542 313.757 547.033 313.647H546.816ZM547.754 310.316C547.467 310.236 547.162 310.243 546.878 310.335C546.595 310.428 546.345 310.603 546.161 310.838C545.976 311.072 545.866 311.356 545.843 311.654C545.82 311.951 545.886 312.249 546.032 312.509C546.178 312.769 546.398 312.98 546.664 313.115C546.931 313.25 547.231 313.303 547.527 313.268C547.824 313.233 548.103 313.11 548.33 312.916C548.557 312.723 548.721 312.466 548.802 312.179C548.894 311.8 548.837 311.401 548.642 311.064C548.446 310.727 548.129 310.479 547.754 310.37V310.316Z" fill="#68E1FD"/>
<path d="M590.495 330.234L590.196 329.894L601.663 319.942L601.772 319.969L619.116 323.735L619.021 324.184L601.786 320.431L590.495 330.234Z" fill="#68E1FD"/>
<path d="M619.959 325.883C619.458 325.744 619.032 325.412 618.776 324.96C618.519 324.507 618.453 323.971 618.592 323.47C618.731 322.969 619.064 322.543 619.516 322.287C619.969 322.031 620.505 321.965 621.007 322.104C621.505 322.249 621.926 322.584 622.18 323.036C622.435 323.489 622.502 324.023 622.367 324.524V324.524C622.227 325.023 621.895 325.446 621.444 325.701C620.993 325.955 620.459 326.021 619.959 325.883V325.883ZM620.884 322.539C620.596 322.457 620.289 322.462 620.004 322.555C619.719 322.648 619.468 322.823 619.283 323.059C619.098 323.295 618.987 323.581 618.966 323.88C618.944 324.179 619.011 324.478 619.16 324.738C619.308 324.998 619.531 325.209 619.8 325.342C620.068 325.475 620.371 325.526 620.668 325.487C620.965 325.448 621.244 325.321 621.469 325.123C621.695 324.925 621.855 324.664 621.932 324.374C622.029 323.992 621.974 323.588 621.778 323.245C621.583 322.903 621.263 322.65 620.884 322.539V322.539Z" fill="#68E1FD"/>
<path d="M630.57 368.778C630.189 368.681 629.845 368.475 629.58 368.185C629.315 367.895 629.141 367.534 629.079 367.147C629.017 366.759 629.07 366.362 629.231 366.004C629.391 365.646 629.654 365.342 629.985 365.132C630.316 364.921 630.702 364.811 631.095 364.816C631.487 364.822 631.87 364.942 632.195 365.162C632.52 365.382 632.774 365.692 632.925 366.054C633.076 366.417 633.118 366.815 633.045 367.201C633.045 367.269 633.045 367.351 633.045 367.419C632.977 367.673 632.857 367.911 632.695 368.119C632.532 368.326 632.328 368.498 632.097 368.625C631.866 368.752 631.612 368.831 631.349 368.858C631.087 368.884 630.821 368.857 630.57 368.778V368.778ZM631.495 365.447C631.207 365.367 630.902 365.374 630.619 365.467C630.335 365.559 630.085 365.734 629.901 365.969C629.717 366.204 629.606 366.488 629.583 366.785C629.56 367.083 629.626 367.38 629.772 367.64C629.919 367.9 630.139 368.111 630.405 368.246C630.671 368.381 630.971 368.435 631.268 368.399C631.564 368.364 631.843 368.242 632.07 368.048C632.297 367.854 632.461 367.597 632.542 367.31V367.31C632.647 366.928 632.598 366.52 632.404 366.174C632.211 365.828 631.889 365.572 631.508 365.461L631.495 365.447Z" fill="#68E1FD"/>
<path d="M629.359 366.644L612.668 361.994L612.614 361.953L599.092 346.698L599.432 346.399L612.913 361.6L629.481 366.209L629.359 366.644Z" fill="#68E1FD"/>
<path d="M529.526 343.735C529.154 343.629 528.821 343.416 528.57 343.122C528.319 342.827 528.16 342.465 528.115 342.081C528.069 341.697 528.139 341.308 528.314 340.963C528.49 340.619 528.763 340.333 529.101 340.144C529.438 339.955 529.824 339.869 530.21 339.899C530.596 339.928 530.964 340.072 531.269 340.31C531.573 340.549 531.8 340.872 531.921 341.24C532.042 341.607 532.051 342.002 531.947 342.375C531.88 342.625 531.763 342.858 531.605 343.062C531.446 343.266 531.248 343.436 531.022 343.563C530.797 343.689 530.548 343.77 530.292 343.799C530.035 343.829 529.774 343.807 529.526 343.735V343.735ZM530.465 340.39C530.177 340.31 529.872 340.317 529.589 340.409C529.305 340.502 529.055 340.677 528.871 340.912C528.687 341.146 528.576 341.43 528.553 341.728C528.53 342.025 528.596 342.323 528.743 342.583C528.889 342.843 529.109 343.054 529.375 343.189C529.641 343.324 529.941 343.377 530.238 343.342C530.534 343.307 530.813 343.184 531.04 342.99C531.267 342.797 531.431 342.54 531.512 342.253C531.617 341.867 531.566 341.455 531.37 341.107C531.174 340.758 530.849 340.501 530.465 340.39V340.39Z" fill="#68E1FD"/>
<path d="M548.366 347.174L531.662 342.525L531.784 342.089L548.366 346.698L567.764 340.635L567.9 341.07L548.366 347.174Z" fill="#68E1FD"/>
<path d="M640.636 363.367H653.722C654.444 363.367 655.136 363.654 655.646 364.163C656.156 364.673 656.443 365.365 656.443 366.086C656.443 366.807 656.156 367.499 655.646 368.009C655.136 368.519 654.444 368.805 653.722 368.805H640.636C639.914 368.805 639.222 368.519 638.712 368.009C638.202 367.499 637.915 366.807 637.915 366.086C637.915 365.365 638.202 364.673 638.712 364.163C639.222 363.654 639.914 363.367 640.636 363.367Z" fill="#68E1FD"/>
<path d="M628.815 319.806H641.86C642.582 319.806 643.274 320.092 643.784 320.602C644.294 321.112 644.581 321.804 644.581 322.525C644.581 323.246 644.294 323.938 643.784 324.448C643.274 324.958 642.582 325.244 641.86 325.244H628.774C628.053 325.244 627.361 324.958 626.85 324.448C626.34 323.938 626.053 323.246 626.053 322.525C626.053 322.165 626.125 321.808 626.264 321.475C626.404 321.142 626.608 320.841 626.865 320.588C627.122 320.335 627.426 320.135 627.761 320.001C628.096 319.867 628.454 319.801 628.815 319.806Z" fill="#68E1FD"/>
<path d="M539.293 301.805H552.379C553.101 301.805 553.793 302.091 554.303 302.601C554.813 303.111 555.1 303.803 555.1 304.524C555.1 305.245 554.813 305.937 554.303 306.447C553.793 306.957 553.101 307.243 552.379 307.243H539.293C538.572 307.243 537.88 306.957 537.369 306.447C536.859 305.937 536.573 305.245 536.573 304.524C536.573 303.803 536.859 303.111 537.369 302.601C537.88 302.091 538.572 301.805 539.293 301.805Z" fill="#68E1FD"/>
<path d="M515.733 347.147H528.819C529.54 347.147 530.232 347.434 530.743 347.944C531.253 348.454 531.539 349.145 531.539 349.866C531.539 350.587 531.253 351.279 530.743 351.789C530.232 352.299 529.54 352.585 528.819 352.585H515.733C515.011 352.585 514.319 352.299 513.809 351.789C513.299 351.279 513.012 350.587 513.012 349.866C513.012 349.145 513.299 348.454 513.809 347.944C514.319 347.434 515.011 347.147 515.733 347.147V347.147Z" fill="#68E1FD"/>
</g>
<defs>
<filter id="filter0_d" x="119.859" y="135.227" width="729.954" height="653.091" filterUnits="userSpaceOnUse" color-interpolation-filters="sRGB">
<feFlood flood-opacity="0" result="BackgroundImageFix"/>
<feColorMatrix in="SourceAlpha" type="matrix" values="0 0 0 0 0 0 0 0 0 0 0 0 0 0 0 0 0 0 127 0"/>
<feOffset dy="4"/>
<feGaussianBlur stdDeviation="2"/>
<feColorMatrix type="matrix" values="0 0 0 0 0 0 0 0 0 0 0 0 0 0 0 0 0 0 0.25 0"/>
<feBlend mode="normal" in2="BackgroundImageFix" result="effect1_dropShadow"/>
<feBlend mode="normal" in="SourceGraphic" in2="effect1_dropShadow" result="shape"/>
</filter>
<linearGradient id="paint0_linear" x1="524.928" y1="454.799" x2="513.799" y2="604.885" gradientUnits="userSpaceOnUse">
<stop offset="0.01"/>
<stop offset="0.08" stop-opacity="0.69"/>
<stop offset="0.21" stop-opacity="0.32"/>
<stop offset="1" stop-opacity="0"/>
</linearGradient>
<linearGradient id="paint1_linear" x1="20712.2" y1="-6812.17" x2="-10834.9" y2="-75087.6" gradientUnits="userSpaceOnUse">
<stop offset="0.01"/>
<stop offset="0.08" stop-opacity="0.69"/>
<stop offset="0.21" stop-opacity="0.32"/>
<stop offset="1" stop-opacity="0"/>
</linearGradient>
<linearGradient id="paint2_linear" x1="2126.88" y1="-1751.81" x2="2088.99" y2="-1390.43" gradientUnits="userSpaceOnUse">
<stop offset="0.01"/>
<stop offset="0.08" stop-opacity="0.69"/>
<stop offset="0.21" stop-opacity="0.32"/>
<stop offset="1" stop-opacity="0"/>
</linearGradient>
<linearGradient id="paint3_linear" x1="3639.14" y1="-4739.21" x2="4338.66" y2="-4565.07" gradientUnits="userSpaceOnUse">
<stop offset="0.01"/>
<stop offset="0.08" stop-opacity="0.69"/>
<stop offset="0.21" stop-opacity="0.32"/>
<stop offset="1" stop-opacity="0"/>
</linearGradient>
<linearGradient id="paint4_linear" x1="32803.5" y1="1774.56" x2="34193.2" y2="-1842.68" gradientUnits="userSpaceOnUse">
<stop offset="0.01"/>
<stop offset="0.08" stop-opacity="0.69"/>
<stop offset="0.21" stop-opacity="0.32"/>
<stop offset="1" stop-opacity="0"/>
</linearGradient>
<linearGradient id="paint5_linear" x1="594.566" y1="371.576" x2="570.648" y2="307.81" gradientUnits="userSpaceOnUse">
<stop offset="0.01" stop-color="white"/>
<stop offset="1" stop-color="white" stop-opacity="0"/>
</linearGradient>
<linearGradient id="paint6_linear" x1="16846" y1="1128.43" x2="17195" y2="204.708" gradientUnits="userSpaceOnUse">
<stop offset="0.01"/>
<stop offset="0.08" stop-opacity="0.69"/>
<stop offset="0.21" stop-opacity="0.32"/>
<stop offset="1" stop-opacity="0"/>
</linearGradient>
<linearGradient id="paint7_linear" x1="16394.8" y1="4172.38" x2="16364" y2="4319.77" gradientUnits="userSpaceOnUse">
<stop offset="0.01"/>
<stop offset="0.08" stop-opacity="0.69"/>
<stop offset="0.21" stop-opacity="0.32"/>
<stop offset="1" stop-opacity="0"/>
</linearGradient>
<linearGradient id="paint8_linear" x1="9783.99" y1="-1803.19" x2="9777.55" y2="-1519.25" gradientUnits="userSpaceOnUse">
<stop offset="0.01"/>
<stop offset="0.08" stop-opacity="0.69"/>
<stop offset="0.21" stop-opacity="0.32"/>
<stop offset="1" stop-opacity="0"/>
</linearGradient>
<linearGradient id="paint9_linear" x1="9677.23" y1="-3198.6" x2="10892.1" y2="-2824.69" gradientUnits="userSpaceOnUse">
<stop offset="0.01"/>
<stop offset="0.08" stop-opacity="0.69"/>
<stop offset="0.21" stop-opacity="0.32"/>
<stop offset="1" stop-opacity="0"/>
</linearGradient>
<clipPath id="clip0">
<rect width="496.226" height="373.805" fill="white" transform="translate(271 218)"/>
</clipPath>
</defs>
</svg>
